<?xml version="1.0" standalone="no"?>
<!DOCTYPE svg PUBLIC "-//W3C//DTD SVG 20010904//EN"
 "http://www.w3.org/TR/2001/REC-SVG-20010904/DTD/svg10.dtd">
<svg version="1.0" xmlns="http://www.w3.org/2000/svg"
 width="361.000000pt" height="361.000000pt" viewBox="0 0 361.000000 361.000000"
 preserveAspectRatio="xMidYMid meet">
<metadata>
Created by potrace 1.14, written by Peter Selinger 2001-2017
</metadata>
<g transform="translate(0.000000,361.000000) scale(0.100000,-0.100000)"
fill="#000000" stroke="none">
<path d="M1681 3595 c-121 -34 -124 -37 -850 -759 -381 -380 -713 -717 -737
-749 -60 -80 -86 -154 -90 -252 -4 -97 7 -149 47 -235 28 -60 89 -123 752
-787 681 -681 726 -724 790 -754 137 -63 283 -63 416 2 60 29 127 92 769 733
417 416 719 725 742 760 91 134 103 300 33 459 -24 57 -80 116 -722 761 -383
384 -722 718 -754 742 -32 23 -83 52 -114 64 -75 28 -210 35 -282 15z"/>
</g>
</svg>
