<svg width="25" height="24" viewBox="0 0 25 24" fill="none" xmlns="http://www.w3.org/2000/svg">
<path d="M17.6667 2H7.66675C4.90532 2 2.66675 4.23858 2.66675 7V17C2.66675 19.7614 4.90532 22 7.66675 22H17.6667C20.4282 22 22.6667 19.7614 22.6667 17V7C22.6667 4.23858 20.4282 2 17.6667 2Z" stroke="#020101" stroke-linecap="round" stroke-linejoin="round"/>
<path d="M16.6667 11.37C16.7901 12.2022 16.648 13.0522 16.2605 13.799C15.873 14.5458 15.2598 15.1514 14.5083 15.5297C13.7568 15.9079 12.9051 16.0396 12.0745 15.9059C11.2438 15.7723 10.4765 15.3801 9.88154 14.7852C9.28662 14.1902 8.89443 13.4229 8.76077 12.5922C8.6271 11.7615 8.75876 10.9099 9.13703 10.1584C9.51529 9.40685 10.1209 8.79374 10.8677 8.40624C11.6145 8.01874 12.4645 7.87658 13.2967 8C14.1456 8.12588 14.9316 8.52146 15.5384 9.1283C16.1452 9.73515 16.5408 10.5211 16.6667 11.37Z" stroke="#020101" stroke-linecap="round" stroke-linejoin="round"/>
<path d="M18.1667 6.5H18.1768" stroke="#020101" stroke-linecap="round" stroke-linejoin="round"/>
</svg>
