<svg width="25" height="24" viewBox="0 0 25 24" fill="none" xmlns="http://www.w3.org/2000/svg">
<path d="M16.8633 8.42745C18.3164 9.46764 20.0597 10.025 21.8467 10.0207V6.47375C20.8796 6.47396 19.9338 6.18964 19.1271 5.65623C18.56 5.29081 18.0735 4.81356 17.6972 4.25366C17.321 3.69376 17.0629 3.06299 16.9388 2.39993C16.886 2.1029 16.8608 1.80166 16.8633 1.5H13.2911V15.6821C13.2912 16.3205 13.0894 16.9426 12.7148 17.4596C12.3401 17.9766 11.8117 18.3619 11.205 18.5607C10.5983 18.7594 9.94426 18.7613 9.33637 18.5662C8.72847 18.371 8.19779 17.9888 7.82009 17.4741C7.44239 16.9593 7.23699 16.3384 7.23323 15.7C7.22947 15.0616 7.42754 14.4383 7.79915 13.9191C8.17076 13.4 8.69691 13.0115 9.30246 12.8092C9.66328 12.6887 10.0413 12.6379 10.4167 12.6571V9.08314C9.33449 9.05824 8.25854 9.30002 7.28573 9.79231C6.08686 10.399 5.10178 11.3572 4.4622 12.5389C3.82263 13.7205 3.55906 15.0693 3.70672 16.4048C3.85438 17.7403 4.40625 18.9989 5.28852 20.0123C6.17079 21.0256 7.34141 21.7455 8.64386 22.0756C9.94631 22.4058 11.3185 22.3304 12.577 21.8596C13.8354 21.3888 14.9201 20.545 15.6861 19.4411C16.4521 18.3372 16.8628 17.0257 16.8633 15.6821V8.42745Z" stroke="#020101" stroke-linejoin="round"/>
</svg>
