<svg width="25" height="24" viewBox="0 0 25 24" fill="none" xmlns="http://www.w3.org/2000/svg">
<ellipse rx="1.60714" ry="1.60714" transform="matrix(-1 0 0 1 7.07157 13.5)" stroke="black" stroke-linecap="round" stroke-linejoin="round"/>
<path d="M1.71443 13.5C1.71443 16.4587 4.1129 18.8572 7.07157 18.8572C10.0302 18.8572 12.4287 16.4587 12.4287 13.5C12.4287 10.5413 10.0302 8.14287 7.07157 8.14287C5.9831 8.14287 1.17871 8.14287 1.17871 8.14287L2.59676 10.5536C2.03905 11.3989 1.71443 12.4115 1.71443 13.5Z" stroke="black" stroke-linecap="round" stroke-linejoin="round"/>
<ellipse cx="17.7859" cy="13.5" rx="1.60714" ry="1.60714" stroke="black" stroke-linecap="round" stroke-linejoin="round"/>
<path d="M23.143 13.5C23.143 16.4587 20.7445 18.8572 17.7859 18.8572C14.8272 18.8572 12.4287 16.4587 12.4287 13.5C12.4287 10.5413 14.8272 8.14287 17.7859 8.14287C18.8743 8.14287 23.6787 8.14287 23.6787 8.14287L22.2607 10.5536C22.8184 11.3989 23.143 12.4115 23.143 13.5Z" stroke="black" stroke-linecap="round" stroke-linejoin="round"/>
<path d="M9.21436 6.40506C10.2417 6.14063 11.3187 6 12.4286 6C13.5385 6 14.6156 6.14063 15.6429 6.40506" stroke="black" stroke-linecap="round" stroke-linejoin="round"/>
<path d="M10.1638 18.628L12.4286 20.8929L14.6638 18.6576" stroke="black" stroke-linecap="round" stroke-linejoin="round"/>
</svg>
