<svg width="25" height="24" viewBox="0 0 25 24" fill="none" xmlns="http://www.w3.org/2000/svg">
<g clip-path="url(#clip0_66_1036)">
<path d="M23.3333 3C22.3756 3.67548 21.3154 4.19211 20.1933 4.53C19.591 3.83751 18.7906 3.34669 17.9003 3.12393C17.01 2.90116 16.0727 2.9572 15.2153 3.28445C14.3579 3.61171 13.6217 4.1944 13.1062 4.95372C12.5908 5.71303 12.3209 6.61234 12.3333 7.53V8.53C10.5759 8.57557 8.83453 8.18581 7.26426 7.39545C5.694 6.60508 4.34357 5.43864 3.33325 4C3.33325 4 -0.666748 13 8.33325 17C6.27378 18.398 3.82041 19.0989 1.33325 19C10.3333 24 21.3333 19 21.3333 7.5C21.3323 7.22145 21.3056 6.94359 21.2533 6.67C22.2739 5.66349 22.9941 4.39271 23.3333 3Z" stroke="#020101" stroke-linecap="round" stroke-linejoin="round"/>
</g>
<defs>
<clipPath id="clip0_66_1036">
<rect width="24" height="24" fill="white" transform="translate(0.333252)"/>
</clipPath>
</defs>
</svg>
