<svg width="25" height="24" viewBox="0 0 25 24" fill="none" xmlns="http://www.w3.org/2000/svg">
<g clip-path="url(#clip0_66_1049)">
<path d="M22.8733 6.42C22.7545 5.94541 22.5126 5.51057 22.172 5.15941C21.8314 4.80824 21.4041 4.55318 20.9333 4.42C19.2133 4 12.3333 4 12.3333 4C12.3333 4 5.45334 4 3.73334 4.46C3.26258 4.59318 2.83531 4.84824 2.49468 5.19941C2.15405 5.55057 1.91212 5.98541 1.79334 6.46C1.47855 8.20556 1.32457 9.97631 1.33334 11.75C1.32211 13.537 1.4761 15.3213 1.79334 17.08C1.92429 17.5398 2.17164 17.9581 2.51148 18.2945C2.85132 18.6308 3.27216 18.8738 3.73334 19C5.45334 19.46 12.3333 19.46 12.3333 19.46C12.3333 19.46 19.2133 19.46 20.9333 19C21.4041 18.8668 21.8314 18.6118 22.172 18.2606C22.5126 17.9094 22.7545 17.4746 22.8733 17C23.1857 15.2676 23.3397 13.5103 23.3333 11.75C23.3446 9.96296 23.1906 8.1787 22.8733 6.42Z" stroke="#020101" stroke-linecap="round" stroke-linejoin="round"/>
<path d="M10.0833 15.02L15.8333 11.75L10.0833 8.48V15.02Z" stroke="#020101" stroke-linecap="round" stroke-linejoin="round"/>
</g>
<defs>
<clipPath id="clip0_66_1049">
<rect width="24" height="24" fill="white" transform="translate(0.333252)"/>
</clipPath>
</defs>
</svg>
